# xmcd
#
# Track frame offsets:
#	150
#	15406
#	23793
#	33019
#	43189
#	51582
#	61714
#	69038
#	79386
#	90222
#	100592
#
# Disc length: 1495 seconds
#
# Revision: 1
# Processed by: cddbd v1.5.1PL0 Copyright (c) Steve Scherf et al.
# Submitted via: audiograbber 1.81.03
#
DISCID=7505d50b
DTITLE=Justin`Curtis - Talk Talk Talk
DYEAR=2004
DGENRE=Country
TTITLE0=A`Boy Named Sue
TTITLE1=Talk Talk Talk
TTITLE2=Ice Cream Boogie
TTITLE3=Little Message
TTITLE4=What's Her Name
TTITLE5=Cadillac Girl
TTITLE6=I Wanna Rob Trains
TTITLE7=Nothing To Do
TTITLE8=Black Leather Hurricane
TTITLE9=Burn Down The House
TTITLE10=I've Never Been To Prison
EXTD=
EXTT0=
EXTT1=
EXTT2=
EXTT3=
EXTT4=
EXTT5=
EXTT6=
EXTT7=
EXTT8=
EXTT9=
EXTT10=
PLAYORDER=
